<?xml version="1.0" standalone="no"?><!DOCTYPE svg PUBLIC "-//W3C//DTD SVG 1.1//EN" "http://www.w3.org/Graphics/SVG/1.1/DTD/svg11.dtd"><svg t="1734235588683" class="icon" viewBox="0 0 1024 1024" version="1.1" xmlns="http://www.w3.org/2000/svg" p-id="4354" width="14" height="14" xmlns:xlink="http://www.w3.org/1999/xlink"><path d="M85.333333 85.333333h170.666667v170.666667H85.333333V85.333333z m0 341.333334h170.666667v170.666666H85.333333v-170.666666z m0 341.333333h170.666667v170.666667H85.333333v-170.666667z m170.666667-512h170.666667v170.666667h-170.666667v-170.666667z m170.666667-170.666667h170.666666v170.666667h-170.666666V85.333333z m0 341.333334h170.666666v170.666666h-170.666666v-170.666666z m0 341.333333h170.666666v170.666667h-170.666666v-170.666667z m170.666666-170.666667h170.666667v170.666667h-170.666667v-170.666667z m0-341.333333h170.666667v170.666667h-170.666667v-170.666667z m170.666667-170.666667h170.666667v170.666667h-170.666667V85.333333z m0 341.333334h170.666667v170.666666h-170.666667v-170.666666z m0 341.333333h170.666667v170.666667h-170.666667v-170.666667z m-512-170.666667h170.666667v170.666667h-170.666667v-170.666667z" fill="#000000" p-id="4355"></path></svg>